/* XPM */
static char * sync_logo_sm_xpm[] = {
"24 24 362 2",
"  	c None",
". 	c #FFFFFF",
"+ 	c #FEFEFE",
"@ 	c #F8F8F8",
"# 	c #E8E9EB",
"$ 	c #DFE2E6",
"% 	c #D6D9E9",
"& 	c #CDD1E8",
"* 	c #C9CAE7",
"= 	c #BDBFDD",
"- 	c #B9BCD6",
"; 	c #E9ECF5",
"> 	c #FBFCFB",
", 	c #F4F8FA",
"' 	c #E3E9EF",
") 	c #C4CADC",
"! 	c #9EA2C1",
"~ 	c #868BB9",
"{ 	c #7E83B3",
"] 	c #6D73A2",
"^ 	c #B2B7D5",
"/ 	c #FDFEFE",
"( 	c #FCFEFE",
"_ 	c #FCFDFA",
": 	c #FBFCFC",
"< 	c #FBF8FE",
"[ 	c #EDEEF8",
"} 	c #BEC4DF",
"| 	c #7684BA",
"1 	c #5B65A2",
"2 	c #A3AACB",
"3 	c #FCFDFE",
"4 	c #FCFEFA",
"5 	c #F6F7F5",
"6 	c #FDFBFE",
"7 	c #E8EAF2",
"8 	c #9EABCF",
"9 	c #6774B6",
"0 	c #545E9C",
"a 	c #A9B1D5",
"b 	c #FEFEFD",
"c 	c #FEFEFB",
"d 	c #FCFDF6",
"e 	c #FAFCF9",
"f 	c #F7F5FC",
"g 	c #D7D8EB",
"h 	c #8F9ACA",
"i 	c #6E79BF",
"j 	c #5D68AF",
"k 	c #B6BDDD",
"l 	c #FEFDFE",
"m 	c #F9FCFD",
"n 	c #E4E6F3",
"o 	c #BEBBDC",
"p 	c #A4A5CE",
"q 	c #7F88C4",
"r 	c #6672BB",
"s 	c #646DAE",
"t 	c #BCC1D8",
"u 	c #FEFDFD",
"v 	c #FDFDFC",
"w 	c #FDFCFE",
"x 	c #F9FAFE",
"y 	c #E8EAF3",
"z 	c #C1C5DA",
"A 	c #AAAAD2",
"B 	c #9A96C9",
"C 	c #908FBB",
"D 	c #7B82B9",
"E 	c #838ECE",
"F 	c #808BBF",
"G 	c #BBC2D0",
"H 	c #FEFCFD",
"I 	c #FDFCFD",
"J 	c #FDFDFE",
"K 	c #EBEDF8",
"L 	c #C5C7DE",
"M 	c #ACB0CE",
"N 	c #979CC7",
"O 	c #9191C6",
"P 	c #8885B8",
"Q 	c #9495BF",
"R 	c #AAB3DC",
"S 	c #A0ACE2",
"T 	c #858CB9",
"U 	c #BDC0C8",
"V 	c #FDFEFC",
"W 	c #FBFAFD",
"X 	c #F7F9FC",
"Y 	c #D1D3E7",
"Z 	c #ABB1CF",
"` 	c #989EC6",
" .	c #8B91C2",
"..	c #888EBF",
"+.	c #9898C5",
"@.	c #B6B3DE",
"#.	c #C0C3DC",
"$.	c #B1BCDC",
"%.	c #929FD1",
"&.	c #737CB2",
"*.	c #C0C1D9",
"=.	c #F3F5FC",
"-.	c #B9BFDC",
";.	c #9197C3",
">.	c #8286B0",
",.	c #8084B2",
"'.	c #8C92C1",
").	c #ABB1D8",
"!.	c #BFC2EA",
"~.	c #C4C2E8",
"{.	c #BABCD5",
"].	c #A5AFCF",
"^.	c #8892CB",
"/.	c #6D72AE",
"(.	c #C1C1DF",
"_.	c #C4C8E5",
":.	c #818BC1",
"<.	c #737DB6",
"[.	c #7D82B3",
"}.	c #AFB0D4",
"|.	c #BBC0E5",
"1.	c #BBC1E1",
"2.	c #B3B4D8",
"3.	c #ADA7D7",
"4.	c #ACABD6",
"5.	c #8E9AC4",
"6.	c #7683BC",
"7.	c #727AB4",
"8.	c #C0C2DE",
"9.	c #FDFEFD",
"0.	c #FBFCFE",
"a.	c #9297B1",
"b.	c #6D7AAE",
"c.	c #939ED2",
"d.	c #B5BBDE",
"e.	c #C1C3DE",
"f.	c #BEBFE0",
"g.	c #AAADCD",
"h.	c #AFB1DA",
"i.	c #9F9BCF",
"j.	c #9291C1",
"k.	c #8E95C3",
"l.	c #707ABA",
"m.	c #656CAB",
"n.	c #C2C3DF",
"o.	c #F5F9FD",
"p.	c #818AAA",
"q.	c #727FB1",
"r.	c #A8B3E3",
"s.	c #C3C8E6",
"t.	c #B9BBD6",
"u.	c #BDBEDD",
"v.	c #BABFDD",
"w.	c #AEAFD9",
"x.	c #A19FCF",
"y.	c #9698C9",
"z.	c #737EB0",
"A.	c #646FAE",
"B.	c #6E75B4",
"C.	c #C8CAE3",
"D.	c #F4F6F9",
"E.	c #7C88B1",
"F.	c #5E6DAD",
"G.	c #6470B0",
"H.	c #858BBE",
"I.	c #B0B1D9",
"J.	c #BABDE2",
"K.	c #C6CEF0",
"L.	c #C5CCEF",
"M.	c #A6A7D6",
"N.	c #878BB6",
"O.	c #8089AD",
"P.	c #7C89BA",
"Q.	c #747DB3",
"R.	c #C5C7E0",
"S.	c #F9F8FD",
"T.	c #888FBE",
"U.	c #5968AC",
"V.	c #5C68AD",
"W.	c #656CA8",
"X.	c #757AB1",
"Y.	c #898EC5",
"Z.	c #9CA6D3",
"`.	c #A0A9D2",
" +	c #A3A7D3",
".+	c #ADB5D6",
"++	c #A7B6D9",
"@+	c #96A3CE",
"#+	c #8088BA",
"$+	c #BDBFD6",
"%+	c #FDFDFD",
"&+	c #FEFEFC",
"*+	c #F8F7FE",
"=+	c #878BB7",
"-+	c #626DB5",
";+	c #636FB6",
">+	c #6971AD",
",+	c #6A70A9",
"'+	c #6973AB",
")+	c #6672A3",
"!+	c #707DAE",
"~+	c #8489C3",
"{+	c #9FA7CC",
"]+	c #AFBDE2",
"^+	c #9DACDD",
"/+	c #7B83B8",
"(+	c #B2B3CF",
"_+	c #F4F2FB",
":+	c #F6F6FB",
"<+	c #FAF9FC",
"[+	c #FBFAFC",
"}+	c #FBFBFE",
"|+	c #F9F7FC",
"1+	c #8C8FB6",
"2+	c #6B76B7",
"3+	c #727EBD",
"4+	c #717DBA",
"5+	c #7683B4",
"6+	c #7685B7",
"7+	c #7380B9",
"8+	c #7B7FC2",
"9+	c #7F89B9",
"0+	c #7B88BA",
"a+	c #6A77B6",
"b+	c #6167A7",
"c+	c #ACABD1",
"d+	c #D6D4E9",
"e+	c #D8D6E8",
"f+	c #D8D6E9",
"g+	c #D8D6E7",
"h+	c #D7D5E8",
"i+	c #D8D5E8",
"j+	c #8F91BD",
"k+	c #848DCB",
"l+	c #9198C7",
"m+	c #9FA1C7",
"n+	c #9FA1CC",
"o+	c #9EA4CD",
"p+	c #9FA7CE",
"q+	c #97A0D3",
"r+	c #898CC9",
"s+	c #767EBF",
"t+	c #6873B3",
"u+	c #636CAD",
"v+	c #7174B2",
"w+	c #AAA8D4",
"x+	c #BFBEDA",
"y+	c #C0C0DD",
"z+	c #C2C3DD",
"A+	c #C7C6E1",
"B+	c #C6C7DE",
"C+	c #C4C4DD",
"D+	c #F8F8FE",
"E+	c #878AB7",
"F+	c #7B83C0",
"G+	c #BDC1E5",
"H+	c #D4D2EF",
"I+	c #D7D3F5",
"J+	c #D6D4ED",
"K+	c #C4C8E8",
"L+	c #B0B4DE",
"M+	c #8A90C5",
"N+	c #7882B9",
"O+	c #7982B9",
"P+	c #898EBE",
"Q+	c #BBBCE4",
"R+	c #D2D2ED",
"S+	c #D4D5EB",
"T+	c #D2D3E6",
"U+	c #D0D0E7",
"V+	c #CFCFE6",
"W+	c #CCCCE3",
"X+	c #CCCDE1",
"Y+	c #F6F6FD",
"Z+	c #8588B2",
"`+	c #7A84B7",
" @	c #A7B0D4",
".@	c #CCCEEB",
"+@	c #D3D1F6",
"@@	c #C7CBEB",
"#@	c #B7BDDC",
"$@	c #A5A6C8",
"%@	c #B1B6D3",
"&@	c #B8BEDB",
"*@	c #C1C8E1",
"=@	c #DBE0F2",
"-@	c #E4E6F6",
";@	c #E7E6F2",
">@	c #E8E7F2",
",@	c #E7E8F3",
"'@	c #E7E8F2",
")@	c #E7E8F5",
"!@	c #E8E9F7",
"~@	c #F8F8FB",
"{@	c #8A8EB7",
"]@	c #868FC4",
"^@	c #97A2C7",
"/@	c #9AA1C5",
"(@	c #9498C5",
"_@	c #8D95C3",
":@	c #9DA5C7",
"<@	c #B7B8D7",
"[@	c #CFD2E5",
"}@	c #EEF2F7",
"|@	c #F7FBFC",
"1@	c #FBFDFC",
"2@	c #FCFCFD",
"3@	c #FCFCFE",
"4@	c #FBFDFE",
"5@	c #FBFCFD",
"6@	c #FAFCFC",
"7@	c #FAF9FD",
"8@	c #8F92BF",
"9@	c #838CC8",
"0@	c #8F9AC7",
"a@	c #8D93BE",
"b@	c #8E90C4",
"c@	c #828BBE",
"d@	c #888FBA",
"e@	c #B6B5D6",
"f@	c #E8E7F3",
"g@	c #F9F7FA",
"h@	c #FCFDF7",
"i@	c #FCFDF8",
"j@	c #FAF9FA",
"k@	c #FCFAFD",
"l@	c #FCFEFD",
"m@	c #FBFEFA",
"n@	c #FAF8FD",
"o@	c #8E91C5",
"p@	c #7177B8",
"q@	c #838BBB",
"r@	c #9596C0",
"s@	c #9F9FCF",
"t@	c #B6BAE2",
"u@	c #D0D5F1",
"v@	c #D8D7EE",
"w@	c #DAD9EC",
"x@	c #E2DFE9",
"y@	c #E9E6ED",
"z@	c #EDEBF1",
"A@	c #F1EFF2",
"B@	c #F4F4F7",
"C@	c #F8F8F7",
"D@	c #FCFCFC",
"E@	c #FDFEF9",
"F@	c #FDFEFB",
"G@	c #F8F6FD",
"H@	c #8084B5",
"I@	c #7D84BF",
"J@	c #9EA5C7",
"K@	c #BEC0DB",
"L@	c #E0DEF4",
"M@	c #DCDEF1",
"N@	c #CDD1E0",
"O@	c #CFD2E6",
"P@	c #E1E1EA",
"Q@	c #EEEBF3",
"R@	c #F5F2F8",
"S@	c #FBF6FC",
"T@	c #FAF9FB",
"U@	c #FCFCF9",
". . . + + + + + + @ # $ % & * = - ; + + + + + + ",
". . . + + + + + + > , ' ) ! ~ { ] ^ / + + + + + ",
". . . / ( / + + + + _ : < [ } | 1 2 3 + + + + + ",
". . . + + + + + + + 4 5 6 7 8 9 0 a / + + + + + ",
". . . + + + + + b c d e f g h i j k / + + + + + ",
". . . + + + l + + + m n o p q r s t / + + + + + ",
". . . u v + w / x y z A B C D E F G 4 + + + + + ",
". . . H I J 3 K L M N O P Q R S T U V + + + + + ",
". . . l W X Y Z `  ...+.@.#.$.%.&.*.J + + + + + ",
". . . + =.-.;.>.,.'.).!.~.{.].^./.(.l + + + + + ",
". . . l _.:.<.[.}.|.1.2.3.4.5.6.7.8.9.b b b b b ",
". . . 0.a.b.c.d.e.f.g.h.i.j.k.l.m.n.+ + + + + + ",
". . . o.p.q.r.s.t.u.v.w.x.y.z.A.B.C.l + + + + + ",
". . . D.E.F.G.H.I.J.K.L.M.N.O.P.Q.R.+ + + + + + ",
". . . S.T.U.V.W.X.Y.Z.`. +.+++@+#+$+%+b + b &+b ",
". . . *+=+-+;+>+,+'+)+!+~+{+]+^+/+(+_+:+<+[+W }+",
". . . |+1+2+3+4+z.5+6+7+8+9+0+a+b+c+d+e+f+g+h+i+",
". . . S.j+k+l+m+n+o+p+q+r+s+t+u+v+w+x+y+z+A+B+C+",
". . . D+E+F+G+H+I+J+K+L+M+N+O+P+Q+R+S+T+U+V+W+X+",
". . . Y+Z+`+ @.@+@@@#@$@%@&@*@=@-@;@>@,@,@'@)@!@",
". . . ~@{@]@^@/@(@_@:@<@[@}@|@1@2@3@3@4@5@5@6@6@",
". . . 7@8@9@0@a@b@c@d@e@f@g@h@i@j@k@+ _ v l@m@V ",
". . . n@o@p@q@r@s@t@u@v@w@x@y@z@A@B@C@%+. D@E@F@",
". . . G@H@I@J@K@L@M@N@O@P@Q@R@S@T@%+. . D@%+@ U@"};
